<svg width="20" height="18" viewBox="0 0 20 18" fill="none" xmlns="http://www.w3.org/2000/svg">
<path d="M13.3174 0.354668C13.901 0.586972 14.3137 1.00569 14.6836 1.61956L14.8055 1.83142L15.2578 2.69857L15.2726 2.72279L15.2862 2.74387L15.3246 2.79637C15.5306 3.02088 15.8754 3.1565 16.103 3.1565C18.1878 3.1565 19.8905 4.79376 19.9949 6.85204L20 7.0525V12.8475C20 15.5195 17.8898 17.7 15.2455 17.8129L15.03 17.8175H4.97C2.29734 17.8175 0.117471 15.7076 0.00459171 13.0631L0 12.8475V7.0525C0 4.90109 1.74498 3.1565 3.897 3.1565C4.12377 3.1565 4.46908 3.02068 4.67544 2.79637L4.68255 2.78799L4.69145 2.77634L4.74287 2.69745L5.19382 1.8317C5.59577 1.10118 6.03303 0.612829 6.68188 0.354573C7.87089 -0.118207 12.1293 -0.118207 13.3174 0.354668ZM7.23635 1.74833C7.01496 1.83645 6.81452 2.04041 6.60062 2.39401L6.50802 2.5548L6.12316 3.2989L6.02843 3.47033C5.94936 3.60186 5.87026 3.71289 5.77995 3.81129C5.31953 4.31175 4.65847 4.6008 4.07082 4.64922L3.897 4.6565L3.7329 4.66203C2.53997 4.74269 1.58621 5.69623 1.50553 6.8885L1.5 7.0525V12.8475C1.5 14.6998 2.95174 16.2135 4.77961 16.3124L4.97 16.3175H15.03C16.8819 16.3175 18.396 14.8652 18.4949 13.0378L18.5 12.8475V7.0525C18.5 5.78472 17.5142 4.74636 16.2671 4.66203L16.103 4.6565L15.9289 4.64922C15.3403 4.60079 14.6793 4.31166 14.2194 3.81063C14.1303 3.71353 14.0517 3.60329 13.973 3.47287L13.9542 3.44054L13.9317 3.40039L13.8156 3.18264L13.4917 2.55508C13.2729 2.15797 13.0726 1.91528 12.8564 1.79331L12.7626 1.74833L12.6433 1.70867C11.6142 1.41778 8.03441 1.431 7.23635 1.74833ZM9.9997 6.1992C12.1699 6.1992 13.9287 7.95799 13.9287 10.1282C13.9287 12.2984 12.1699 14.0572 9.9997 14.0572C7.82949 14.0572 6.0707 12.2984 6.0707 10.1282C6.0707 7.95799 7.82949 6.1992 9.9997 6.1992ZM9.9997 7.6992C8.65791 7.6992 7.5707 8.78641 7.5707 10.1282C7.5707 11.47 8.65791 12.5572 9.9997 12.5572C11.3415 12.5572 12.4287 11.47 12.4287 10.1282C12.4287 8.78641 11.3415 7.6992 9.9997 7.6992ZM15.5043 5.5002C16.0566 5.5002 16.5043 5.94792 16.5043 6.5002C16.5043 7.01304 16.1183 7.43571 15.6209 7.49347L15.5043 7.5002C14.943 7.5002 14.4953 7.05248 14.4953 6.5002C14.4953 5.98736 14.8813 5.56469 15.3787 5.50693L15.5043 5.5002Z" fill="#ED1C24"/>
</svg>
