<svg width="24" height="24" viewBox="0 0 24 24" fill="none" xmlns="http://www.w3.org/2000/svg">
<path d="M16.3328 22H7.66618C4.2769 22 2 19.6229 2 16.0843V7.91672C2 4.37811 4.2769 2 7.66618 2H16.3338C19.7231 2 22 4.37811 22 7.91672V16.0843C22 19.6229 19.7231 22 16.3328 22Z" fill="#FDE8EB"/>
<path fill-rule="evenodd" clip-rule="evenodd" d="M11.2451 8.67545C11.2451 10.0455 10.1301 11.1605 8.7601 11.1605C7.3891 11.1605 6.2751 10.0455 6.2751 8.67545C6.2751 7.30545 7.3891 6.18945 8.7601 6.18945C10.1301 6.18945 11.2451 7.30545 11.2451 8.67545ZM19.4005 14.0881C19.6335 14.3141 19.8005 14.5721 19.9105 14.8471C20.2435 15.6791 20.0705 16.6791 19.7145 17.5031C19.2925 18.4841 18.4845 19.2251 17.4665 19.5491C17.0145 19.6941 16.5405 19.7561 16.0675 19.7561H7.6865C6.8525 19.7561 6.1145 19.5621 5.5095 19.1981C5.1305 18.9701 5.0635 18.4451 5.3445 18.1031C5.8145 17.5331 6.2785 16.9611 6.7465 16.3841C7.6385 15.2801 8.2395 14.9601 8.9075 15.2411C9.1785 15.3571 9.4505 15.5321 9.7305 15.7161C10.4765 16.2101 11.5135 16.8881 12.8795 16.1521C13.8132 15.6415 14.3552 14.7678 14.827 14.0074L14.8365 13.9921C14.8682 13.9412 14.8997 13.8903 14.9311 13.8396C15.0915 13.5804 15.2495 13.3251 15.4285 13.0901C15.6505 12.7991 16.4745 11.8891 17.5395 12.5371C18.2185 12.9451 18.7895 13.4971 19.4005 14.0881Z" fill="#ED1C24"/>
</svg>
