<svg width="24" height="25" viewBox="0 0 24 25" fill="none" xmlns="http://www.w3.org/2000/svg">
<path d="M21.3599 11.7823C21.6969 11.4116 21.6643 10.8435 21.2872 10.5136L12.9778 3.2429C12.6007 2.91308 11.996 2.91999 11.6268 3.25848L3.28917 10.9013C2.91995 11.2398 2.90183 11.8072 3.24905 12.1681L3.45808 12.3857C3.80488 12.7467 4.36544 12.7897 4.70933 12.4816L5.33243 11.9236V20.093C5.33243 20.5942 5.73856 21 6.23942 21H9.48944C9.9903 21 10.3964 20.5942 10.3964 20.093V14.3777H14.5419V20.093C14.5347 20.5938 14.893 20.9996 15.3939 20.9996H18.8381C19.339 20.9996 19.7451 20.5938 19.7451 20.0926V12.0386C19.7451 12.0386 19.9172 12.1894 20.1295 12.376C20.3415 12.5622 20.7866 12.4129 21.1237 12.0419L21.3599 11.7823Z" fill="#232425"/>
</svg>
