<svg width="24" height="25" viewBox="0 0 24 25" fill="none" xmlns="http://www.w3.org/2000/svg">
<path d="M20.8638 10.1501C18.3138 7.94006 15.7738 5.73006 13.2538 3.49006C12.4438 2.78006 11.8138 2.86006 11.0338 3.61006C8.6738 5.84006 6.2438 8.00006 3.8438 10.1901C3.3338 10.6501 2.6738 11.0601 3.1838 11.9201C3.7038 12.8101 4.3738 12.5501 5.2438 12.0601C5.2438 14.5801 5.2738 16.9201 5.2338 19.2601C5.2238 20.3101 5.6438 20.7401 6.7038 20.7201C10.7538 20.6501 10.3538 21.2201 10.3638 17.1201C10.3638 14.1401 10.3638 14.1601 13.3838 14.2201C14.1238 14.2401 14.4038 14.4301 14.3838 15.2001C14.3238 16.6401 14.3838 18.0801 14.3538 19.5201C14.3438 20.3501 14.6838 20.7401 15.5338 20.7101C16.4338 20.6901 17.3438 20.6801 18.2438 20.7201C19.2038 20.7601 19.5738 20.3401 19.5538 19.4001C19.5238 17.2601 19.5438 15.1201 19.5538 12.9801C19.5538 12.5501 19.4038 12.0901 20.2038 12.2201C20.6838 12.3001 21.1238 11.9001 21.2638 11.3601C21.3838 10.8801 21.2538 10.4901 20.8638 10.1501ZM16.9238 19.2601C15.8838 19.2501 15.8138 18.7901 15.8438 17.9801C15.8838 16.5401 15.8238 15.1001 15.8638 13.6601C15.8838 12.9601 15.6338 12.7301 14.9438 12.7401C13.2538 12.7801 11.5638 12.7901 9.8738 12.7401C9.0138 12.7101 8.8438 13.0801 8.8638 13.8301C8.9138 15.3101 8.8338 16.8001 8.8938 18.2801C8.9338 19.2101 8.4338 19.2301 7.7438 19.2401C7.0338 19.2501 6.7038 19.0801 6.7238 18.2801C6.7638 15.6501 6.7438 13.0201 6.7238 10.3801C6.7238 9.84006 6.9038 9.44006 7.2938 9.09006C8.7638 7.77006 10.2438 6.46006 11.6738 5.11006C12.1138 4.70006 12.3538 4.73006 12.7738 5.11006C14.3638 6.54006 15.9738 7.95006 17.6138 9.33006C18.0238 9.68006 18.0638 10.0601 18.0638 10.5201C18.0538 11.8001 18.0638 13.0701 18.0638 14.3501C18.0638 15.5401 18.0238 16.7401 18.0738 17.9301C18.1038 18.7701 18.0338 19.2801 16.9238 19.2601Z" fill="#A3A5A8"/>
</svg>
