<svg width="21" height="20" viewBox="0 0 21 20" fill="none" xmlns="http://www.w3.org/2000/svg">
<path d="M15.0768 5.43872L14.435 6.24912H15.4688H18.75C19.0152 6.24912 19.2696 6.35448 19.4571 6.54202L19.8107 6.18846L19.4571 6.54202C19.6446 6.72955 19.75 6.98391 19.75 7.24912V10.2491C19.75 10.5143 19.6446 10.7687 19.4571 10.9562C19.2696 11.1438 19.0152 11.2491 18.75 11.2491H18.25V11.7491V17.7491C18.25 18.0143 18.1446 18.2687 17.9571 18.4562C17.7696 18.6438 17.5152 18.7491 17.25 18.7491H3.75C3.48478 18.7491 3.23043 18.6438 3.04289 18.4562C2.85536 18.2687 2.75 18.0143 2.75 17.7491V11.7491V11.2491H2.25C1.98478 11.2491 1.73043 11.1438 1.54289 10.9562L1.18934 11.3098L1.54289 10.9562C1.35536 10.7687 1.25 10.5143 1.25 10.2491V7.24912C1.25 6.98391 1.35536 6.72955 1.54289 6.54202C1.73043 6.35448 1.98478 6.24912 2.25 6.24912H5.53125H6.56497L5.92323 5.43872C5.52957 4.9416 5.33953 4.31346 5.39159 3.68148C5.44365 3.04951 5.73391 2.46093 6.20362 2.03492C6.67332 1.60891 7.28735 1.37731 7.92139 1.38701C8.5534 1.39668 9.15821 1.64538 9.61415 2.08293C9.79282 2.26478 9.93911 2.47583 10.0467 2.70698L10.5 3.68097L10.9533 2.70698C11.0609 2.47583 11.2072 2.26478 11.3858 2.08293C11.8418 1.64538 12.4466 1.39668 13.0786 1.38701C13.7126 1.37731 14.3267 1.60891 14.7964 2.03492L15.1285 1.66879L14.7964 2.03492C15.2661 2.46093 15.5564 3.04951 15.6084 3.68148C15.6605 4.31346 15.4704 4.9416 15.0768 5.43872ZM10.7798 5.67982L10.7312 6.2679L11.3193 6.2193C11.9037 6.171 12.551 6.08107 13.1197 5.93888C13.4041 5.86779 13.6787 5.78121 13.9203 5.67538C14.1517 5.57401 14.3819 5.44256 14.5587 5.26636C14.7546 5.08629 14.9127 4.86888 15.0236 4.62686C15.1364 4.38055 15.198 4.11388 15.2047 3.84303C15.2114 3.57218 15.163 3.3028 15.0624 3.05123L14.5981 3.23688L15.0624 3.05123C14.9618 2.79967 14.8111 2.57117 14.6195 2.37959C14.428 2.18801 14.1995 2.03736 13.9479 1.93676L13.7622 2.40102L13.9479 1.93676C13.6963 1.83617 13.4269 1.78774 13.1561 1.79441C12.8852 1.80108 12.6186 1.86271 12.3723 1.97556C12.1302 2.08644 11.9128 2.24451 11.7328 2.44044C11.5566 2.61718 11.4251 2.84738 11.3237 3.07879C11.2179 3.32039 11.1313 3.59505 11.0602 3.87942C10.9181 4.44815 10.8281 5.09541 10.7798 5.67982ZM6.43657 2.43047L6.43653 2.43043L6.43134 2.43569C6.06092 2.81163 5.85327 3.31822 5.85327 3.846C5.85327 4.37355 6.06074 4.87993 6.43087 5.25582C6.60893 5.43733 6.84367 5.572 7.07966 5.67538C7.32127 5.78121 7.59592 5.86779 7.88029 5.93888C8.44903 6.08107 9.09628 6.171 9.68069 6.2193L10.2688 6.2679L10.2202 5.67982C10.1719 5.09541 10.0819 4.44815 9.93976 3.87942C9.86867 3.59505 9.78208 3.32039 9.67625 3.07879C9.57297 2.843 9.43844 2.60847 9.25718 2.43047C8.88124 2.06004 8.37465 1.85239 7.84687 1.85239C7.3191 1.85239 6.81251 2.06004 6.43657 2.43047ZM18.75 10.7491H19.25V10.2491V7.24912V6.74912H18.75H11.25H10.75V7.24912V9.74912H10.25V7.24912V6.74912H9.75H2.25H1.75V7.24912V10.2491V10.7491H2.25H9.25V16.9991C9.25 17.3306 9.3817 17.6486 9.61612 17.883C9.85054 18.1174 10.1685 18.2491 10.5 18.2491C10.8315 18.2491 11.1495 18.1174 11.3839 17.883C11.6183 17.6486 11.75 17.3306 11.75 16.9991V10.7491H18.75Z" fill="url(#paint0_linear_10353_2209)" stroke="url(#paint1_linear_10353_2209)"/>
<defs>
<linearGradient id="paint0_linear_10353_2209" x1="-13.7069" y1="-10.016" x2="28.8646" y2="28.3168" gradientUnits="userSpaceOnUse">
<stop stop-color="#FBB04C"/>
<stop offset="0.177083" stop-color="#FD8C48"/>
<stop offset="0.375" stop-color="#FE684D"/>
<stop offset="0.5625" stop-color="#F43036"/>
<stop offset="0.760417" stop-color="#F0232B"/>
<stop offset="0.9195" stop-color="#ED1C24"/>
<stop offset="1" stop-color="#ED1C24"/>
</linearGradient>
<linearGradient id="paint1_linear_10353_2209" x1="-13.7069" y1="-10.016" x2="28.8646" y2="28.3168" gradientUnits="userSpaceOnUse">
<stop stop-color="#FBB04C"/>
<stop offset="0.177083" stop-color="#FD8C48"/>
<stop offset="0.375" stop-color="#FE684D"/>
<stop offset="0.5625" stop-color="#F43036"/>
<stop offset="0.760417" stop-color="#F0232B"/>
<stop offset="0.9195" stop-color="#ED1C24"/>
<stop offset="1" stop-color="#ED1C24"/>
</linearGradient>
</defs>
</svg>
