<svg width="24" height="25" viewBox="0 0 24 25" fill="none" xmlns="http://www.w3.org/2000/svg">
<path fill-rule="evenodd" clip-rule="evenodd" d="M18.865 5.93407C19.302 6.08707 19.594 6.49907 19.594 6.96207V13.7351C19.594 15.6281 18.906 17.4351 17.691 18.8351C17.08 19.5401 16.307 20.0891 15.486 20.5331L11.928 22.4551L8.364 20.5321C7.542 20.0881 6.768 19.5401 6.156 18.8341C4.94 17.4341 4.25 15.6261 4.25 13.7311V6.96207C4.25 6.49907 4.542 6.08707 4.979 5.93407L11.561 3.62107C11.795 3.53907 12.05 3.53907 12.283 3.62107L18.865 5.93407Z" stroke="#A3A5A8" stroke-width="1.5" stroke-linecap="round" stroke-linejoin="round"/>
<path d="M9.32251 12.7281L11.2145 14.6211L15.1125 10.7231" stroke="#A3A5A8" stroke-width="1.5" stroke-linecap="round" stroke-linejoin="round"/>
</svg>
