<svg width="24" height="25" viewBox="0 0 24 25" fill="none" xmlns="http://www.w3.org/2000/svg">
<path fill-rule="evenodd" clip-rule="evenodd" d="M15.9317 3.60498C15.9317 3.60498 8.25468 3.60898 8.24268 3.60898C5.48268 3.62598 3.77368 5.44198 3.77368 8.21198V17.408C3.77368 20.192 5.49568 22.015 8.27968 22.015C8.27968 22.015 15.9557 22.012 15.9687 22.012C18.7287 21.995 20.4387 20.178 20.4387 17.408V8.21198C20.4387 5.42798 18.7157 3.60498 15.9317 3.60498Z" fill="#202021" stroke="#232425" stroke-width="1.5" stroke-linecap="round" stroke-linejoin="round"/>
<path fill-rule="evenodd" clip-rule="evenodd" d="M15.7162 17.0337H8.49622Z" fill="#202021"/>
<path d="M15.7162 17.0337H8.49622" stroke="white" stroke-width="1.5" stroke-linecap="round" stroke-linejoin="round"/>
<path fill-rule="evenodd" clip-rule="evenodd" d="M15.7162 12.8472H8.49622Z" fill="#202021"/>
<path d="M15.7162 12.8472H8.49622" stroke="white" stroke-width="1.5" stroke-linecap="round" stroke-linejoin="round"/>
<path fill-rule="evenodd" clip-rule="evenodd" d="M11.2513 8.67041H8.49634Z" fill="#202021"/>
<path d="M11.2513 8.67041H8.49634" stroke="white" stroke-width="1.5" stroke-linecap="round" stroke-linejoin="round"/>
</svg>
