<svg width="24" height="24" viewBox="0 0 24 24" xmlns="http://www.w3.org/2000/svg">
<g clip-path="url(#clip0_1_24)">
<g clip-path="url(#clip1_1_24)" filter="url(#filter0_d_1_24)">
<path d="M20.5286 5.33328C20.5286 6.8291 19.3161 8.04172 17.8203 8.04172C16.3245 8.04172 15.112 6.8291 15.112 5.33328C15.112 3.83762 16.3245 2.625 17.8203 2.625C19.3161 2.625 20.5286 3.83762 20.5286 5.33328V5.33328Z" fill="#030D1B"/>
<path d="M17.8203 8.66672C15.9819 8.66672 14.487 7.17166 14.487 5.33328C14.487 3.49506 15.9819 2 17.8203 2C19.6587 2 21.1536 3.49506 21.1536 5.33328C21.1536 7.17166 19.6587 8.66672 17.8203 8.66672ZM17.8203 3.25C16.6712 3.25 15.737 4.18506 15.737 5.33328C15.737 6.48166 16.6712 7.41672 17.8203 7.41672C18.9695 7.41672 19.9036 6.48166 19.9036 5.33328C19.9036 4.18506 18.9695 3.25 17.8203 3.25Z" fill="#030D1B"/>
<path d="M20.5286 18.6667C20.5286 20.1624 19.3161 21.375 17.8203 21.375C16.3245 21.375 15.112 20.1624 15.112 18.6667C15.112 17.1709 16.3245 15.9583 17.8203 15.9583C19.3161 15.9583 20.5286 17.1709 20.5286 18.6667V18.6667Z" fill="#030D1B"/>
<path d="M17.8203 22C15.9819 22 14.487 20.5049 14.487 18.6667C14.487 16.8283 15.9819 15.3333 17.8203 15.3333C19.6587 15.3333 21.1536 16.8283 21.1536 18.6667C21.1536 20.5049 19.6587 22 17.8203 22ZM17.8203 16.5833C16.6712 16.5833 15.737 17.5183 15.737 18.6667C15.737 19.8149 16.6712 20.75 17.8203 20.75C18.9695 20.75 19.9036 19.8149 19.9036 18.6667C19.9036 17.5183 18.9695 16.5833 17.8203 16.5833V16.5833Z" fill="#030D1B"/>
<path d="M8.86203 12C8.86203 13.4958 7.64941 14.7083 6.15359 14.7083C4.65793 14.7083 3.44531 13.4958 3.44531 12C3.44531 10.5042 4.65793 9.29172 6.15359 9.29172C7.64941 9.29172 8.86203 10.5042 8.86203 12Z" fill="#030D1B"/>
<path d="M6.15359 15.3333C4.31537 15.3333 2.82031 13.8384 2.82031 12C2.82031 10.1616 4.31537 8.66672 6.15359 8.66672C7.99197 8.66672 9.48703 10.1616 9.48703 12C9.48703 13.8384 7.99197 15.3333 6.15359 15.3333ZM6.15359 9.91672C5.00446 9.91672 4.07031 10.8516 4.07031 12C4.07031 13.1484 5.00446 14.0833 6.15359 14.0833C7.30289 14.0833 8.23703 13.1484 8.23703 12C8.23703 10.8516 7.30289 9.91672 6.15359 9.91672Z" fill="#030D1B"/>
<path d="M8.12121 11.6001C7.83115 11.6001 7.54947 11.4492 7.39612 11.1792C7.16861 10.7801 7.30868 10.2709 7.70785 10.0424L15.4402 5.63419C15.8394 5.405 16.3486 5.54507 16.577 5.94577C16.8045 6.34494 16.6645 6.85413 16.2653 7.08255L8.53274 11.4908C8.40274 11.565 8.26114 11.6001 8.12121 11.6001V11.6001Z" fill="#030D1B"/>
<path d="M15.8528 18.4751C15.7128 18.4751 15.5712 18.44 15.4412 18.3658L7.70862 13.9576C7.30945 13.73 7.16952 13.2209 7.39703 12.8208C7.62363 12.4208 8.13357 12.28 8.53366 12.5092L16.2662 16.9174C16.6654 17.145 16.8053 17.6541 16.5778 18.0542C16.4237 18.3242 16.142 18.4751 15.8528 18.4751V18.4751Z" fill="#030D1B"/>
</g>
</g>
<defs>
<filter id="filter0_d_1_24" x="-4" y="0" width="32" height="32" filterUnits="userSpaceOnUse" color-interpolation-filters="sRGB">
<feFlood flood-opacity="0" result="BackgroundImageFix"/>
<feColorMatrix in="SourceAlpha" type="matrix" values="0 0 0 0 0 0 0 0 0 0 0 0 0 0 0 0 0 0 127 0" result="hardAlpha"/>
<feOffset dy="4"/>
<feGaussianBlur stdDeviation="3"/>
<feComposite in2="hardAlpha" operator="out"/>
<feColorMatrix type="matrix" values="0 0 0 0 0 0 0 0 0 0 0 0 0 0 0 0 0 0 0.05 0"/>
<feBlend mode="normal" in2="BackgroundImageFix" result="effect1_dropShadow_1_24"/>
<feBlend mode="normal" in="SourceGraphic" in2="effect1_dropShadow_1_24" result="shape"/>
</filter>
<clipPath id="clip0_1_24">
<rect width="24" height="24" fill="#030D1B"/>
</clipPath>
<clipPath id="clip1_1_24">
<rect width="20" height="20" fill="#030D1B" transform="translate(2 2)"/>
</clipPath>
</defs>
</svg>
