<svg width="24" height="25" viewBox="0 0 24 25" fill="none" xmlns="http://www.w3.org/2000/svg">
<circle cx="11.5789" cy="8.08809" r="4.77803" stroke="#A3A5A8" stroke-width="1.5" stroke-linecap="round" stroke-linejoin="round"/>
<path fill-rule="evenodd" clip-rule="evenodd" d="M4.00002 19.5116C3.99873 19.1757 4.07385 18.8439 4.2197 18.5414C4.67736 17.626 5.96798 17.1409 7.03892 16.9212C7.81128 16.7564 8.59431 16.6463 9.38217 16.5917C10.8408 16.4636 12.3079 16.4636 13.7666 16.5917C14.5544 16.6469 15.3374 16.757 16.1099 16.9212C17.1808 17.1409 18.4714 17.5803 18.9291 18.5414C19.2224 19.1582 19.2224 19.8742 18.9291 20.491C18.4714 21.4521 17.1808 21.8915 16.1099 22.102C15.3384 22.2736 14.5551 22.3869 13.7666 22.4407C12.5794 22.5413 11.3866 22.5597 10.1968 22.4956C9.92221 22.4956 9.65677 22.4956 9.38217 22.4407C8.59663 22.3875 7.81632 22.2743 7.04807 22.102C5.96798 21.8915 4.68652 21.4521 4.2197 20.491C4.0746 20.1849 3.99955 19.8503 4.00002 19.5116Z" stroke="#A3A5A8" stroke-width="1.5" stroke-linecap="round" stroke-linejoin="round"/>
</svg>
