<svg width="17" height="18" viewBox="0 0 17 18" fill="none" xmlns="http://www.w3.org/2000/svg">
<path fill-rule="evenodd" clip-rule="evenodd" d="M6.79409 1.02184C4.19285 1.61707 2.25152 3.94608 2.25152 6.72747V11.257H1.80091C0.806679 11.257 0 12.0637 0 13.0579C0 14.0528 0.806415 14.8588 1.80091 14.8588H14.4073C15.4024 14.8588 16.2082 14.053 16.2082 13.0579C16.2082 12.0634 15.4021 11.257 14.4073 11.257H13.9574V6.72747C13.9574 3.94605 12.016 1.61701 9.41475 1.02182C9.26782 0.43494 8.73671 0 8.10442 0C7.47213 0 6.94102 0.434951 6.79409 1.02184ZM4.49867 11.257H3.15197V6.72747C3.15197 3.99292 5.36992 1.77497 8.10447 1.77497C10.839 1.77497 13.057 3.99292 13.057 6.72747V11.257H8.09959C7.85094 11.257 7.64936 11.4586 7.64936 11.7072C7.64936 11.9559 7.85094 12.1574 8.09959 12.1574H13.3784C13.4192 12.1696 13.4625 12.1761 13.5072 12.1761C13.5519 12.1761 13.5952 12.1696 13.636 12.1574H14.4073C14.9047 12.1574 15.3077 12.5606 15.3077 13.0579C15.3077 13.5557 14.9051 13.9584 14.4073 13.9584H1.80091C1.30363 13.9584 0.900455 13.5554 0.900455 13.0579C0.900455 12.561 1.30399 12.1574 1.80091 12.1574H4.49867C4.74733 12.1574 4.9489 11.9559 4.9489 11.7072C4.9489 11.4586 4.74733 11.257 4.49867 11.257ZM8.1044 3.50907C6.36395 3.50907 4.95281 4.92021 4.95281 6.66066C4.95281 6.90931 4.75124 7.11088 4.50258 7.11088C4.25393 7.11088 4.05236 6.90931 4.05236 6.66066C4.05236 4.4229 5.86664 2.60861 8.1044 2.60861C8.35306 2.60861 8.55463 2.81018 8.55463 3.05884C8.55463 3.30749 8.35306 3.50907 8.1044 3.50907ZM6.30356 16.2684C6.30356 17.2304 7.11462 18 8.10447 18C9.09433 18 9.90538 17.2304 9.90538 16.2684C9.90538 16.0198 9.70381 15.8182 9.45515 15.8182C9.2065 15.8182 9.00493 16.0198 9.00493 16.2684C9.00493 16.7222 8.60728 17.0995 8.10447 17.0995C7.60166 17.0995 7.20402 16.7222 7.20402 16.2684C7.20402 16.0198 7.00244 15.8182 6.75379 15.8182C6.50514 15.8182 6.30356 16.0198 6.30356 16.2684Z" fill="#263238"/>
</svg>
